# xmcd CD database file
#
# Track frame offsets:
#	182
#	11192
#	24390
#	34897
#	49630
#	60887
#	72175
#	81795
#	92500
#	105357
#	118350
#	127632
#	137180
#	150382
#	159437
#	169510
#	178950
#	190472
#
# Disc length: 2670 seconds
#
# Revision: 3
# Processed by: cddbd v1.5.2PL0 Copyright (c) Steve Scherf et al.
# Submitted via: CDex 1.50
#
DISCID=e00a6c12
DTITLE=Patsy Cline - Legends Volume 2
DYEAR=1900
DGENRE=Country
TTITLE0=Stop Look And Listen
TTITLE1=Yes I Understend
TTITLE2=Walking Dream
TTITLE3=Then You'll Know
TTITLE4=Don't Ever Leave Me Again
TTITLE5=I Can't Forget
TTITLE6=I'm Moving Along
TTITLE7=Gotta Lot Of Rhythm In My Soul
TTITLE8=Just A Closer Walk With Thee
TTITLE9=If I Could See The World (Through The Eyes Of A Child)
TTITLE10=Ain't No Wheels On This Ship
TTITLE11=Love, Love Love Me Honey
TTITLE12=Life's Railway To Heaven
TTITLE13=Try Again
TTITLE14=Turn The Cards Slowly
TTITLE15=Come On In (And Make Yourself At Home)
TTITLE16=Cry Not For Me
TTITLE17=I'm Blue Again
EXTD=Lilo
EXTT0=
EXTT1=
EXTT2=
EXTT3=
EXTT4=
EXTT5=
EXTT6=
EXTT7=
EXTT8=
EXTT9=
EXTT10=
EXTT11=
EXTT12=
EXTT13=
EXTT14=
EXTT15=
EXTT16=
EXTT17=
PLAYORDER=
